<?xml version="1.0" encoding="UTF-8" standalone="no"?>
<!-- Created with Inkscape (http://www.inkscape.org/) -->

<svg
   version="1.1"
   id="svg303"
   width="4954.4868"
   height="1041.8051"
   viewBox="0 0 8000 2000"
   sodipodi:docname="colors-wallpaper.svg"
   inkscape:version="1.1.2 (0a00cf5339, 2022-02-04, custom)"
   inkscape:export-xdpi="23.589827"
   inkscape:export-ydpi="23.589827"
   xmlns:inkscape="http://www.inkscape.org/namespaces/inkscape"
   xmlns:sodipodi="http://sodipodi.sourceforge.net/DTD/sodipodi-0.dtd"
   xmlns="http://www.w3.org/2000/svg"
   xmlns:svg="http://www.w3.org/2000/svg">
  <defs
     id="defs307" />
  <sodipodi:namedview
     id="namedview305"
     pagecolor="#505050"
     bordercolor="#eeeeee"
     borderopacity="1"
     inkscape:pageshadow="0"
     inkscape:pageopacity="0"
     inkscape:pagecheckerboard="0"
     showgrid="false"
     inkscape:zoom="0.22627416"
     inkscape:cx="2675.9573"
     inkscape:cy="1213.1301"
     inkscape:window-width="3438"
     inkscape:window-height="1414"
     inkscape:window-x="0"
     inkscape:window-y="0"
     inkscape:window-maximized="1"
     inkscape:current-layer="g309"
     fit-margin-top="0"
     fit-margin-left="0"
     fit-margin-right="0"
     fit-margin-bottom="0" />
  <g
     inkscape:groupmode="layer"
     inkscape:label="Image"
     id="g309"
     style="display:inline"
     transform="translate(-52.174775,-63.097432)">
    <g
       id="g18"
       transform="translate(1583.7005,479.09746)">
      <path
         style="fill:{color2};fill-opacity:1;stroke-width:1.33333"
         d="m 435.66537,1103.4539 c -58.00275,-9.4916 -106.62217,-50.7537 -124.92261,-106.01847 -10.2285,-30.88878 -10.47745,-66.14313 -0.6873,-97.33337 4.98438,-15.87964 15.3589,-35.47256 25.99156,-49.08665 5.17573,-6.62704 57.84236,-60.32528 123.13411,-125.54604 L 573.27122,611.50333 690.43127,728.8027 c 121.51929,121.6638 125.31767,125.77986 136.54616,147.96603 12.26424,24.23271 16.37188,42.64659 16.21001,72.66667 -0.10306,19.11208 -0.56468,23.67564 -3.5166,34.76483 -16.52528,62.07907 -60.93464,104.84557 -122.60943,118.07357 -15.23455,3.2676 -45.60639,3.274 -61.06143,0.013 -28.71645,-6.0592 -52.76993,-17.9415 -73.17402,-36.1478 -4.54307,-4.054 -8.57366,-7.3707 -8.95688,-7.3707 -0.38323,0 -6.02746,4.3741 -12.54272,9.7201 -20.01612,16.4242 -42.50469,27.6366 -66.24616,33.0292 -15.70659,3.5676 -43.84191,4.4843 -59.41483,1.9359 z M 187.44633,853.38608 C 120.61851,842.85256 69.406254,794.2453 55.161521,727.83016 c -3.267506,-15.23455 -3.27394,-45.60639 -0.01293,-61.06143 6.124125,-29.02435 19.124915,-54.86172 37.70958,-74.94288 3.194673,-3.45192 5.791332,-6.75192 5.770355,-7.33333 -0.02097,-0.58142 -4.371386,-6.23268 -9.667571,-12.55838 -63.313481,-75.6207 -42.461229,-189.11045 43.816615,-238.47486 10.9672,-6.27495 31.33481,-13.88474 45.14596,-16.86751 5.17538,-1.11773 16.6098,-2.34348 25.4098,-2.72391 37.40118,-1.61682 73.67389,9.97643 103.08665,32.9479 6.62702,5.17572 60.32414,57.84121 125.54295,123.13102 L 545.92588,584.0338 428.6296,701.20277 c -81.91858,81.82967 -120.31237,119.27661 -127.29628,124.15697 -18.18823,12.70996 -38.33109,21.46254 -60.21649,26.16559 -11.73144,2.52103 -42.67525,3.59384 -53.6705,1.86075 z m 724.55364,-0.56488 c -25.51256,-4.19894 -51.40754,-15.5427 -71.75331,-31.43283 -6.62704,-5.17573 -60.32528,-57.84236 -125.54604,-123.13412 L 600.73458,584.16416 718.03395,467.0041 C 839.69775,345.48481 843.8138,341.68644 865.99998,330.45794 c 24.2327,-12.26424 42.64658,-16.37188 72.66666,-16.21001 19.1186,0.10307 23.67385,0.56419 34.78012,3.52048 62.12244,16.53588 104.81874,60.87667 118.05834,122.60556 3.2675,15.23455 3.2739,45.60639 0.013,61.06143 -6.0591,28.71645 -17.9415,52.76993 -36.1477,73.17402 -4.0537,4.54307 -7.3532,8.68743 -7.3322,9.20971 0.021,0.52228 4.3714,6.12516 9.6676,12.45085 38.4893,45.97111 47.4653,108.27843 23.6325,164.04738 -7.1186,16.65774 -18.6253,33.25653 -33.2408,47.95112 -22.2475,22.36773 -47.9545,36.39862 -79.43076,43.35332 -13.06064,2.88576 -42.61913,3.51138 -56.66667,1.1994 z M 455.87455,439.08618 C 334.78123,317.79378 330.89907,313.58478 319.6892,291.4354 c -12.26424,-24.23271 -16.37188,-42.64659 -16.21001,-72.66667 0.10307,-19.11208 0.56468,-23.67564 3.5166,-34.76485 16.52528,-62.07912 60.93464,-104.845602 122.60944,-118.073629 15.23454,-3.267507 45.60638,-3.27394 61.06142,-0.01293 28.71646,6.05916 52.76993,17.941497 73.17403,36.147729 4.54306,4.05369 8.57365,7.37035 8.95688,7.37035 0.38322,0 6.02745,-4.37406 12.54272,-9.720142 28.03752,-23.006049 58.18142,-34.690597 93.99303,-36.434109 69.99722,-3.40786 134.53916,40.895311 156.59056,107.487581 10.22851,30.88875 10.47745,66.14309 0.68731,97.33333 -4.6363,14.77066 -15.06514,35.02175 -24.2381,47.06638 -6.2711,8.23432 -237.18162,240.96174 -239.03688,240.91774 -0.36826,-0.009 -53.226,-52.65873 -117.46165,-117 z"
         id="path389" />
      <path
         style="fill:#000000;fill-opacity:0.15;stroke-width:1.33333"
         d="m 429.03453,1101.3709 c -27.7181,-5.8444 -50.10327,-16.8175 -71.30394,-34.9527 -27.55611,-23.5717 -46.78133,-58.2484 -52.46401,-94.62981 -2.62371,-16.7973 -1.02284,-48.28878 3.276,-64.44392 4.49917,-16.90804 15.69924,-39.9763 25.97752,-53.5047 4.57689,-6.02416 57.14424,-59.62766 123.39354,-125.82574 L 573.33332,612.68359 v 222.20688 222.20683 l -7,6.3121 c -22.02994,19.8647 -50.08383,33.7544 -78.01308,38.6249 -15.85273,2.7644 -44.55137,2.4433 -59.28571,-0.6634 z M 903.99997,850.50677 C 881.331,845.76712 857.39915,834.46759 839.42376,820.0168 834.97402,816.43955 779.73462,761.87485 716.66955,698.76192 L 602.0058,584.01113 h 222.0528 222.0528 l 5.4041,5.66667 c 19.5602,20.51051 34.9128,51.08661 39.8409,79.34641 2.5845,14.8207 2.5418,42.38112 -0.087,56.24004 -12.3052,64.86776 -62.2778,114.6695 -126.60253,126.16956 -15.65158,2.79822 -44.9939,2.34984 -60.66667,-0.92704 z M 95.15112,578.34447 C 75.590977,557.83396 60.238302,527.25785 55.310204,498.99805 51.270231,475.83112 53.211696,445.63633 60.194988,423.02707 77.16923,368.07085 127.68834,324.91352 185.55607,315.93392 c 16.69127,-2.59005 48.28427,-0.99667 64.44392,3.25023 16.788,4.41202 39.7957,15.59826 53.50469,26.01376 6.02416,4.57689 59.62767,57.14424 125.82575,123.39354 L 544.66086,584.01113 H 322.60804 100.55522 Z M 573.33332,333.17805 V 111.01743 l 5.66666,-5.194 c 22.36915,-20.503263 51.04578,-34.900209 79.34641,-39.835428 14.78026,-2.577461 42.32848,-2.536917 56.5063,0.08316 59.96899,11.082343 106.63771,54.481508 123.4755,114.824948 3.44339,12.34044 3.65637,14.68998 3.6062,39.78169 -0.0496,24.84088 -0.30339,27.57956 -3.7058,40 -4.67799,17.07692 -15.90709,40.11229 -26.08205,53.50469 -4.5769,6.02416 -57.14424,59.62767 -123.39355,125.82575 L 573.33332,555.33868 Z"
         id="path387" />
      <text
         xml:space="preserve"
         style="font-size:682.667px;line-height:1.25;font-family:'DejaVu Sans';-inkscape-font-specification:'DejaVu Sans';letter-spacing:0px;word-spacing:0px;fill:{foreground};fill-opacity:1"
         x="1328.0533"
         y="767.16669"
         id="text6863"><tspan
           sodipodi:role="line"
           id="tspan6861"
           x="1328.0533"
           y="767.16669"
           style="font-style:normal;font-variant:normal;font-weight:300;font-stretch:normal;font-size:682.667px;font-family:Roboto;-inkscape-font-specification:'Roboto Light';fill:{foreground};fill-opacity:1">taylor</tspan></text>
      <text
         xml:space="preserve"
         style="font-size:682.667px;line-height:1.25;font-family:'DejaVu Sans';-inkscape-font-specification:'DejaVu Sans';letter-spacing:0px;word-spacing:0px;fill:{foreground};fill-opacity:0.5"
         x="3009.7729"
         y="767.16669"
         id="text37477"><tspan
           sodipodi:role="line"
           id="tspan37475"
           x="3009.7729"
           y="767.16669"
           style="font-style:normal;font-variant:normal;font-weight:300;font-stretch:normal;font-size:682.667px;font-family:Roboto;-inkscape-font-specification:'Roboto Light';fill:{foreground};fill-opacity:0.5">skalyo</tspan></text>
    </g>
  </g>
</svg>
